<svg xmlns="http://www.w3.org/2000/svg" id="logo" viewBox="0 0 337.65 59.27" preserveAspectRatio="xMinYMin meet">
    <path id="green" d="M63.73,15v26.23c0,3.75-1.95,5.47-5.48,5.47h-9.59c-3.53,0-5.47-1.72-5.47-5.47V15H15.07V0H7.72V15H0v7.42H7.72v18.66c0,8,5.4,13,12.82,13h3.82l.15-7.42h-4c-3.52,0-5.47-1.87-5.47-5.55V22.42h20.79v18.81c0,7.95,5.55,12.82,12.82,12.82h9.59c7.27,0,12.82-4.87,12.82-12.82V15h-7.33Z" style="fill:#83b818;" />
    <g id="black">
        <path d="M91.85,28c-2.34,0-3.25-1.49-3.25-3.68v-7.94h-2.52v-1.15h2.52v-3.48l1.26-.3v3.78h3.9v1.16h-3.9v7.88c0,1.49,.4,2.54,2.09,2.54,.67-.01,1.34-.09,2-.23v1.11c-.68,.17-1.38,.27-2.09,.3" />
        <path d="M101.46,16.08c-2.36,.02-4.26,1.96-4.24,4.32,0,.09,0,.17,.01,.26h8.33c0-2.39-1.54-4.58-4.1-4.58m5.36,5.74h-9.61c0,1.37,.46,2.7,1.31,3.77,.75,.88,1.85,1.37,3,1.33,1.03,.02,2.02-.38,2.74-1.11,.5-.48,.85-1.11,1-1.79h1.31c-.17,1.01-.66,1.94-1.41,2.64-.95,.95-2.25,1.48-3.6,1.46-1.53,.04-3-.62-4-1.78-1.07-1.35-1.62-3.05-1.56-4.77-.09-1.59,.34-3.16,1.23-4.48,.97-1.4,2.58-2.22,4.28-2.19,3.4,0,5.39,2.92,5.39,6.09v.83" />
        <path d="M115,28.14c-1.38,.02-2.72-.51-3.7-1.49-1.28-1.39-1.92-3.26-1.76-5.14-.15-1.88,.49-3.74,1.76-5.13,.98-.97,2.32-1.5,3.7-1.48,2.5-.1,4.63,1.77,4.86,4.26h-1.31c-.25-1.76-1.78-3.05-3.55-3-1.04-.05-2.06,.34-2.8,1.08-1.02,1.19-1.52,2.74-1.38,4.3-.14,1.57,.36,3.13,1.38,4.33,.74,.73,1.76,1.11,2.8,1.06,1.8,.02,3.33-1.29,3.58-3.07h1.33c-.29,2.48-2.41,4.34-4.91,4.3" />
        <path d="M132,27.81v-8.23c0-2.19-1-3.5-3.25-3.5-3.1,0-4.18,2.72-4.18,5.43v6.3h-1.26V9.64h1.26v7.91c.79-1.63,2.45-2.65,4.26-2.64,2.89,0,4.43,1.79,4.43,4.61v8.31l-1.26-.02Z" />
        <path d="M146.68,27.81v-8.23c0-2.19-1-3.45-3.25-3.45-3.1,0-4.18,2.67-4.18,5.38v6.3h-1.25V15.23h1.11l.15,2.29c.8-1.61,2.45-2.63,4.25-2.62,2.9,0,4.43,1.79,4.43,4.61v8.31h-1.26Z" />
        <path d="M152.8,15.23h1.33v12.58h-1.33V15.23Zm-.23-5.23h1.76v1.76h-1.76v-1.76Z" />
        <path d="M167.35,26.63c-1.09,1.05-2.57,1.6-4.08,1.51-1.55,.09-3.05-.5-4.13-1.61-.66-.68-1.04-1.58-1.06-2.53h1.28c.07,.74,.4,1.42,.93,1.94,1.75,1.33,4.16,1.36,5.94,.08,.46-.4,.71-1,.68-1.61-.04-1.26-1.06-2.27-2.32-2.29l-2.44-.33c-1.07-.06-2.08-.51-2.84-1.26-.47-.56-.72-1.27-.71-2,0-.93,.39-1.82,1.08-2.44,.96-.81,2.19-1.23,3.45-1.18,1.42-.08,2.81,.46,3.8,1.48,.58,.64,.94,1.46,1,2.32h-1.26c-.07-.55-.28-1.07-.63-1.51-.75-.77-1.8-1.18-2.87-1.11-.8-.06-1.6,.15-2.27,.58-.6,.38-.98,1.03-1,1.74,0,1.06,.53,1.86,2.44,2.12l2.39,.33c2.37,.32,3.48,1.94,3.48,3.47,.02,.85-.29,1.68-.86,2.32" />
        <path d="M176.49,28.14c-1.38,.02-2.72-.51-3.7-1.49-1.29-1.39-1.93-3.25-1.79-5.13-.15-1.88,.49-3.74,1.76-5.13,.98-.97,2.32-1.51,3.7-1.48,2.5-.1,4.63,1.77,4.86,4.26h-1.32c-.24-1.76-1.77-3.05-3.55-3-1.04-.05-2.06,.34-2.8,1.08-1.02,1.19-1.52,2.74-1.38,4.3-.14,1.57,.36,3.13,1.38,4.33,.74,.73,1.76,1.11,2.8,1.06,1.8,.02,3.33-1.29,3.58-3.07h1.34c-.29,2.48-2.41,4.34-4.91,4.3" />
        <path d="M193.51,27.81v-8.23c0-2.19-1-3.5-3.25-3.5-3.1,0-4.18,2.72-4.18,5.43v6.3h-1.26V9.64h1.26v7.91c.79-1.63,2.44-2.65,4.25-2.64,2.9,0,4.43,1.79,4.43,4.61v8.31l-1.25-.02Z" />
        <path d="M203.93,16.08c-2.36,.02-4.26,1.96-4.24,4.32,0,.09,0,.17,.01,.26h8.3c-.05-2.39-1.54-4.58-4.1-4.58m5.36,5.74h-9.62c.01,1.38,.49,2.71,1.36,3.78,.75,.88,1.85,1.37,3,1.33,1.03,.02,2.02-.38,2.74-1.11,.5-.48,.85-1.11,1-1.79h1.26c-.17,1.01-.66,1.94-1.41,2.64-.95,.95-2.25,1.48-3.6,1.46-1.53,.04-3-.62-4-1.78-1.09-1.35-1.66-3.05-1.61-4.79-.09-1.59,.34-3.16,1.23-4.48,.97-1.4,2.58-2.22,4.28-2.19,3.4,0,5.39,2.92,5.39,6.09v.83" />
        <path d="M227.07,27.79l-.15-2.29c-.79,1.62-2.45,2.64-4.25,2.62-2.9,0-4.43-1.79-4.43-4.61V15.2h1.26v8.23c0,2.19,1,3.45,3.25,3.45,3.09,0,4.18-2.67,4.18-5.39v-6.29h1.26v12.59h-1.12Z" />
        <path d="M241.85,27.81v-8.23c0-2.19-1-3.45-3.25-3.45-3.1,0-4.18,2.67-4.18,5.38v6.3h-1.26V15.23h1.11l.15,2.29c.8-1.62,2.46-2.63,4.26-2.62,2.9,0,4.43,1.79,4.43,4.61v8.31h-1.26Z" />
        <path d="M248,15.23h1.33v12.58h-1.33V15.23Zm-.26-5.23h1.76v1.76h-1.76v-1.76Z" />
        <polygon points="258.51 27.82 257.23 27.82 252.25 15.23 253.68 15.23 257.91 26.03 261.96 15.23 263.3 15.23 258.51 27.82" />
        <path d="M270.44,16.08c-2.36,.02-4.26,1.96-4.24,4.32,0,.09,0,.17,.01,.26h8.33c-.05-2.39-1.54-4.58-4.1-4.58m5.36,5.74h-9.62c0,1.37,.46,2.7,1.31,3.77,.75,.88,1.85,1.37,3,1.33,1.03,.02,2.02-.38,2.74-1.11,.5-.48,.85-1.11,1-1.79h1.31c-.17,1.01-.66,1.94-1.41,2.64-.95,.95-2.25,1.48-3.6,1.46-1.53,.04-3-.62-4-1.78-1.09-1.35-1.66-3.05-1.61-4.79-.09-1.59,.34-3.16,1.23-4.48,.97-1.4,2.58-2.22,4.28-2.19,3.4,0,5.39,2.92,5.39,6.09v.83" />
        <path d="M284.85,16.31c-3.15,0-4,2.82-4,5.46v6h-1.26V15.23h1.11l.15,2.54c.59-1.68,2.22-2.77,4-2.67,.41-.01,.82,.02,1.23,.08v1.26c-.4-.09-.82-.14-1.23-.13" />
        <path d="M297.06,26.63c-1.09,1.04-2.56,1.59-4.06,1.51-1.55,.09-3.05-.5-4.13-1.61-.67-.68-1.05-1.58-1.08-2.53h1.28c.07,.74,.4,1.42,.93,1.94,1.75,1.33,4.16,1.36,5.94,.08,.46-.4,.71-1,.68-1.61-.04-1.26-1.06-2.27-2.32-2.29l-2.44-.33c-1.08-.06-2.09-.51-2.86-1.27-.47-.56-.72-1.27-.7-2,0-.93,.39-1.82,1.08-2.44,2.17-1.68,5.23-1.56,7.25,.3,.59,.64,.94,1.46,1,2.32h-1.26c-.07-.55-.28-1.07-.63-1.51-.75-.77-1.8-1.18-2.87-1.11-.8-.05-1.59,.15-2.26,.58-.6,.38-.98,1.03-1,1.74,0,1.06,.53,1.86,2.44,2.12l2.39,.33c2.37,.32,3.48,1.94,3.48,3.47,.02,.85-.29,1.68-.86,2.32" />
        <path d="M301.94,15.23h1.34v12.58h-1.34V15.23Zm-.23-5.23h1.76v1.76h-1.76v-1.76Z" />
        <path d="M312.24,28c-2.34,0-3.24-1.5-3.24-3.69v-7.93h-2.52v-1.15h2.52v-3.48l1.26-.3v3.78h3.9v1.16h-3.9v7.88c0,1.49,.4,2.54,2.09,2.54,.67-.01,1.34-.09,2-.23v1.11c-.68,.17-1.38,.27-2.09,.3" />
        <path d="M323.79,10.54h1.54v1.59h-1.54v-1.59Zm-4.63,0h1.51v1.59h-1.51v-1.59Zm6.34,10.8l-4.51,.28c-1.86,.12-3.07,1.1-3.07,2.64,0,1.81,1.36,2.72,3.14,2.72,3.17,0,4.43-2.57,4.43-5v-.64Zm2.01,6.55c-1.56,0-2-1.13-2-2.47-.8,1.74-2.58,2.82-4.5,2.72-2.44,0-4.33-1.46-4.33-3.88,0-2.24,1.74-3.58,4.23-3.75l4.63-.33v-1.18c0-2.09-1.41-2.87-3.32-2.87s-3.5,.9-3.63,2.77h-1.28c.18-2.54,2.17-4,4.88-4,1.71,0,3.58,.58,4.26,2.31,.26,.78,.37,1.6,.33,2.42v5.74c0,.86,.13,1.36,1,1.36,.12,.01,.23,.01,.35,0v1.11c-.2,.05-.4,.08-.6,.08" />
        <path d="M335.55,28c-2.34,0-3.25-1.49-3.25-3.68v-7.94h-2.52v-1.15h2.52v-3.48l1.26-.3v3.78h3.9v1.16h-3.9v7.88c0,1.49,.4,2.54,2.09,2.54,.67-.01,1.34-.09,2-.23v1.11c-.68,.17-1.38,.27-2.09,.3" />
        <path d="M94.87,43.37c-.71-.67-1.66-1.03-2.64-1-1.01-.03-1.99,.37-2.69,1.11-.98,1.2-1.48,2.73-1.41,4.28-.11,1.67,.5,3.31,1.66,4.51,.69,.6,1.58,.91,2.49,.88,.96,.03,1.88-.33,2.57-1,1.12-1.18,1.7-2.76,1.61-4.38,.13-1.63-.45-3.24-1.59-4.41m1.71,10.7l-.15-2.21c-.8,1.57-2.42,2.55-4.18,2.54-1.23,.04-2.42-.38-3.35-1.18-1.43-1.43-2.18-3.4-2.06-5.41-.08-1.98,.64-3.9,2-5.34,2.05-1.85,5.21-1.69,7.06,.36,.21,.24,.4,.49,.57,.77v-7.7h1.26v18.17h-1.15Z" />
        <path d="M109.82,43.49c-1.55-1.49-3.99-1.49-5.54,0-1.03,1.18-1.54,2.72-1.41,4.28-.13,1.56,.38,3.1,1.41,4.28,1.55,1.49,3.99,1.49,5.54,0,1.03-1.18,1.54-2.72,1.41-4.28,.13-1.56-.38-3.1-1.41-4.28m.91,9.39c-2.04,2.01-5.31,2.01-7.35,0-1.28-1.38-1.93-3.23-1.78-5.11-.15-1.88,.5-3.73,1.78-5.11,2.04-2.01,5.31-2.01,7.35,0,1.29,1.38,1.94,3.23,1.79,5.11,.15,1.88-.5,3.73-1.79,5.11" />
        <path d="M121.68,42.56c-3.15,0-4,2.82-4,5.47v6h-1.26v-12.55h1.11l.15,2.55c.59-1.68,2.22-2.77,4-2.67,.41-.01,.82,.01,1.23,.08v1.26c-.4-.09-.82-.14-1.23-.13" />
        <path d="M130.13,54.24c-2.34,0-3.25-1.49-3.25-3.68v-7.93h-2.52v-1.15h2.52v-3.48l1.26-.3v3.78h3.86v1.16h-3.9v7.88c0,1.48,.4,2.54,2.09,2.54,.67-.01,1.34-.09,2-.23v1.11c-.68,.17-1.38,.27-2.09,.3" />
        <path d="M151.61,54.06v-8.23c0-2.19-.81-3.5-3-3.5-.83-.02-1.64,.29-2.24,.86-1,.99-1.53,2.35-1.48,3.75v7.12h-1.29v-8.23c0-2.19-.83-3.5-3-3.5-.83-.02-1.64,.29-2.24,.86-1.1,1.26-1.65,2.91-1.51,4.58v6.29h-1.26v-12.58h1.11l.15,2.17c.66-1.52,2.17-2.51,3.83-2.49,1.81-.18,3.5,.97,4,2.72,.63-1.68,2.26-2.77,4.05-2.72,2.95,0,4.18,1.91,4.18,4.61v8.31l-1.3-.02Z" />
        <path d="M166.19,54l-.19-2.25c-.79,1.62-2.45,2.64-4.25,2.62-2.9,0-4.43-1.79-4.43-4.61v-8.31h1.26v8.23c0,2.19,1,3.45,3.25,3.45,3.1,0,4.18-2.67,4.18-5.39v-6.29h1.26v12.55h-1.08Z" />
        <path d="M181,54.06v-8.23c0-2.19-1-3.45-3.25-3.45-3.1,0-4.18,2.67-4.18,5.39v6.29h-1.26v-12.58h1.11l.15,2.29c.8-1.61,2.46-2.63,4.26-2.62,2.9,0,4.43,1.79,4.43,4.61v8.31h-1.26Z" />
        <path d="M193.85,43.37c-.71-.67-1.66-1.03-2.64-1-1.01-.03-1.99,.37-2.69,1.11-.98,1.2-1.48,2.73-1.41,4.28-.1,1.67,.5,3.3,1.66,4.51,.69,.6,1.59,.91,2.5,.88,.96,.03,1.88-.33,2.57-1,1.12-1.18,1.7-2.76,1.61-4.38,.14-1.63-.44-3.24-1.59-4.41m1.71,10.7l-.15-2.21c-.8,1.57-2.42,2.56-4.18,2.54-1.23,.04-2.42-.38-3.35-1.18-1.43-1.43-2.18-3.4-2.06-5.41-.08-1.98,.64-3.9,2-5.34,2.05-1.85,5.21-1.69,7.06,.36,.21,.24,.4,.49,.57,.77v-7.7h1.26v18.17h-1.15Z" />
    </g>
</svg>
